<?xml version="1.0" encoding="UTF-8"?>
<svg id="Capa_1" xmlns="http://www.w3.org/2000/svg" version="1.1" viewBox="0 0 195.9 247.6">
  <!-- Generator: Adobe Illustrator 29.0.0, SVG Export Plug-In . SVG Version: 2.1.0 Build 186)  -->
  <defs>
    <style>
      .st0 {
        fill: #a34135;
      }
    </style>
  </defs>
  <path class="st0" d="M0,0v247.6h195.9V0H0ZM47.3,49.1c13.2,10.7,28.5,17.8,43.2,26.2,1,.6,1.6,1.2,1.5,1.5-.1.3-.9.3-1.8,0-7.6-1.4-15.3-2.2-22.8-4.6-5.6-1.8-23.4-9.6-27-13.6-4.6-5.2.7-11.9,7-9.6h0ZM31.1,166.8c-4.7.1-6.4-2.8-6-7.2.3-3.4,2.6-3.7,5.3-4.7,2.2-.8,11.7-4.4,22.6-6.2,7.2-1.2,25.8-.6,25.8-.6.3,1.6.1,1.2-.9,1.8-6.4,3-15.9,5.1-22.7,7.6-5,1.9-20.2,9.3-24.1,9.4h0ZM98.9,204.6c-1.5,2.4-6.5,8.2-8.6,10.7-7.4,8.7-16.3,16.2-23.9,24.8-6.9,3.9-12.9-4.3-7.8-9.9,13.3-10.2,26.2-21.1,41.4-28.6.2,1.2-.5,2.1-1.2,3h0ZM167.4,77c-52.5,12.7-81.4,93-15.9,106.7,5.2,1.1,10.4,1.2,15.6,1.8.9.1,3.6.2,3.6,1.4-5.4-.2-11.2.7-16.6.4-33.6-2-53.8-25.4-47.5-59.1,5.7-30.7,32.2-57.1,62.9-63.5,4.7-1,13.3-3.5,15.3,2.5,3.3,9.8-11.2,8.4-17.4,9.9h0Z"/>
</svg>