<?xml version="1.0" encoding="UTF-8"?>
<svg id="Capa_1" xmlns="http://www.w3.org/2000/svg" version="1.1" viewBox="0 0 633.36 247.56">
  <!-- Generator: Adobe Illustrator 29.0.0, SVG Export Plug-In . SVG Version: 2.1.0 Build 186)  -->
  <defs>
    <style>
      .st0 {
        fill: #fff;
      }
    </style>
  </defs>
  <path class="st0" d="M0,0v247.56h195.91V0H0ZM47.31,49.11c13.18,10.74,28.53,17.79,43.15,26.24,1.01.6,1.61,1.24,1.48,1.53-.12.27-.9.26-1.84.02-7.64-1.44-15.35-2.23-22.79-4.57-5.59-1.76-23.43-9.59-26.96-13.6-4.62-5.25.69-11.87,6.95-9.62ZM31.14,166.78c-4.72.13-6.35-2.82-5.99-7.23.28-3.42,2.64-3.7,5.34-4.72,2.19-.82,11.68-4.44,22.61-6.25,7.16-1.19,25.81-.55,25.81-.55.26,1.63.12,1.25-.94,1.75-6.36,3-15.87,5.06-22.74,7.63-5,1.86-20.16,9.26-24.08,9.37ZM98.93,204.58c-1.52,2.37-6.51,8.21-8.6,10.66-7.41,8.67-16.34,16.23-23.88,24.77-6.87,3.86-12.89-4.29-7.76-9.86,13.34-10.23,26.24-21.05,41.4-28.62.24,1.25-.54,2.09-1.15,3.04ZM167.41,77.01c-52.54,12.7-81.44,92.97-15.93,106.73,5.25,1.1,10.35,1.16,15.61,1.82.87.11,3.6.2,3.59,1.37-5.4-.2-11.21.67-16.56.35-33.56-2.02-53.8-25.39-47.5-59.12,5.74-30.72,32.23-57.13,62.86-63.52,4.66-.97,13.29-3.46,15.3,2.5,3.29,9.8-11.25,8.39-17.36,9.86Z"/>
  <g>
    <path class="st0" d="M284.19,85.25h-14.95v-22.44h-17.29v22.44h-14.95V30.2h14.95v20.41h17.29v-20.41h14.95v55.06Z"/>
    <path class="st0" d="M347.61,57.65c0,4.24-.51,8.1-1.53,11.58s-2.6,6.47-4.76,8.98-4.93,4.44-8.32,5.78c-3.39,1.34-7.44,2.01-12.16,2.01s-8.62-.67-11.99-2.01-6.16-3.26-8.34-5.76c-2.18-2.5-3.8-5.49-4.86-8.98-1.05-3.49-1.58-7.38-1.58-11.67,0-5.72.95-10.7,2.84-14.93s4.83-7.51,8.79-9.83c3.97-2.32,9.04-3.48,15.21-3.48s11.38,1.17,15.31,3.5c3.93,2.33,6.81,5.62,8.64,9.87,1.83,4.24,2.75,9.23,2.75,14.95ZM309.72,57.65c0,3.31.38,6.16,1.13,8.55.75,2.39,1.95,4.22,3.58,5.5,1.63,1.28,3.77,1.92,6.4,1.92s4.92-.64,6.53-1.92c1.62-1.28,2.79-3.11,3.5-5.5.72-2.38,1.07-5.23,1.07-8.55,0-4.97-.83-8.9-2.49-11.79s-4.51-4.33-8.55-4.33c-2.69,0-4.85.65-6.5,1.96-1.64,1.31-2.84,3.16-3.58,5.57-.74,2.41-1.11,5.27-1.11,8.59Z"/>
    <path class="st0" d="M393.55,68.53c0,2.99-.75,5.82-2.26,8.49-1.51,2.67-3.85,4.84-7.02,6.5-3.18,1.66-7.27,2.49-12.3,2.49-2.51,0-4.71-.11-6.61-.34-1.9-.23-3.66-.6-5.29-1.11-1.63-.51-3.33-1.19-5.08-2.01v-13.26c2.99,1.51,6,2.65,9.04,3.45,3.04.79,5.79,1.19,8.25,1.19,1.48,0,2.69-.18,3.63-.53s1.64-.83,2.09-1.45c.45-.61.68-1.32.68-2.13,0-.95-.33-1.76-1-2.43-.67-.67-1.73-1.36-3.18-2.09-1.46-.73-3.38-1.63-5.76-2.71-2.03-.95-3.87-1.93-5.52-2.94s-3.05-2.15-4.22-3.45c-1.17-1.29-2.06-2.81-2.69-4.54-.63-1.73-.94-3.78-.94-6.14,0-3.54.87-6.51,2.62-8.91s4.18-4.2,7.31-5.4c3.13-1.21,6.73-1.81,10.83-1.81,3.59,0,6.82.4,9.7,1.21,2.87.8,5.45,1.72,7.74,2.75l-4.56,11.49c-2.36-1.08-4.68-1.94-6.97-2.58-2.28-.64-4.41-.96-6.36-.96-1.28,0-2.33.16-3.14.47-.82.31-1.42.73-1.81,1.26s-.58,1.13-.58,1.81c0,.85.33,1.62,1,2.3.66.68,1.78,1.41,3.35,2.2,1.57.79,3.71,1.81,6.42,3.07,2.69,1.21,4.97,2.5,6.85,3.9s3.32,3.06,4.31,5.01c.99,1.95,1.49,4.35,1.49,7.21Z"/>
    <path class="st0" d="M426.35,85.25h-14.88v-42.89h-13.44v-12.16h41.73v12.16h-13.41v42.89Z"/>
    <path class="st0" d="M481.41,85.25l-2.71-10.32h-17.89l-2.79,10.32h-16.34l17.96-55.28h19.85l18.19,55.28h-16.27ZM475.61,62.73l-2.37-9.04c-.25-.98-.62-2.38-1.09-4.2-.48-1.82-.95-3.7-1.41-5.65-.46-1.95-.82-3.55-1.07-4.8-.23,1.26-.55,2.81-.96,4.65-.41,1.84-.84,3.67-1.28,5.48s-.82,3.31-1.15,4.52l-2.37,9.04h11.71Z"/>
    <path class="st0" d="M503.62,85.25V30.2h14.88v43.04h21.2v12.01h-36.08Z"/>
    <path class="st0" d="M283.74,172.24c0,6.4-1.19,11.72-3.58,15.97-2.38,4.24-5.74,7.42-10.07,9.55-4.33,2.12-9.42,3.18-15.27,3.18h-17.81v-55.06h19.05c5.92,0,10.95,1.02,15.06,3.05,4.12,2.03,7.25,5.01,9.4,8.93,2.15,3.92,3.22,8.71,3.22,14.39ZM268.3,172.77c0-3.34-.45-6.11-1.34-8.3-.89-2.2-2.23-3.84-4.01-4.93-1.78-1.09-4.03-1.64-6.74-1.64h-4.33v30.84h3.31c4.52,0,7.83-1.31,9.94-3.94,2.11-2.62,3.16-6.63,3.16-12.03Z"/>
    <path class="st0" d="M345.12,173.34c0,4.24-.51,8.1-1.53,11.58s-2.6,6.47-4.76,8.98-4.93,4.44-8.32,5.78c-3.39,1.34-7.44,2.01-12.16,2.01s-8.62-.67-11.99-2.01-6.16-3.26-8.34-5.76c-2.18-2.5-3.8-5.49-4.86-8.98-1.05-3.49-1.58-7.38-1.58-11.67,0-5.72.95-10.7,2.84-14.93s4.83-7.51,8.79-9.83,9.04-3.48,15.21-3.48,11.38,1.17,15.31,3.5c3.93,2.33,6.81,5.62,8.64,9.87,1.83,4.24,2.75,9.23,2.75,14.95ZM307.23,173.34c0,3.31.38,6.16,1.13,8.55.75,2.39,1.95,4.22,3.58,5.5,1.63,1.28,3.77,1.92,6.4,1.92s4.92-.64,6.53-1.92c1.62-1.28,2.79-3.11,3.5-5.5.72-2.38,1.07-5.23,1.07-8.55,0-4.97-.83-8.9-2.49-11.79s-4.51-4.33-8.55-4.33c-2.69,0-4.85.65-6.5,1.96-1.64,1.31-2.84,3.16-3.58,5.57-.74,2.41-1.11,5.27-1.11,8.59Z"/>
    <path class="st0" d="M407.48,200.94h-19.51l-20.11-38.79h-.34c.12,1.18.24,2.6.34,4.25.1,1.66.19,3.35.26,5.07s.11,3.27.11,4.65v24.82h-13.18v-55.06h19.43l20.03,38.26h.23c-.08-1.21-.15-2.6-.23-4.2-.08-1.59-.14-3.21-.21-4.84-.06-1.63-.09-3.08-.09-4.33v-24.89h13.26v55.06Z"/>
    <path class="st0" d="M435.09,218.22c-1.68,0-3.16-.08-4.42-.25-1.27-.16-2.37-.34-3.29-.55v-11.56c.8.15,1.66.32,2.56.51.9.19,1.88.28,2.94.28,1.78,0,3.17-.36,4.16-1.09.99-.73,1.69-1.82,2.09-3.28.4-1.46.6-3.28.6-5.46v-50.95h14.95v49.67c0,5.52-.83,9.94-2.49,13.26-1.66,3.31-3.95,5.71-6.89,7.19-2.94,1.48-6.34,2.22-10.21,2.22Z"/>
    <path class="st0" d="M513.38,145.88v33.14c0,4.62-.88,8.63-2.64,12.03-1.76,3.4-4.39,6.03-7.91,7.87-3.51,1.84-7.92,2.77-13.22,2.77-7.58,0-13.37-1.95-17.36-5.84-3.99-3.89-5.99-9.39-5.99-16.49v-33.48h14.95v32.31c0,3.89.73,6.72,2.18,8.47,1.46,1.76,3.6,2.64,6.44,2.64,2.03,0,3.69-.38,4.97-1.15,1.28-.77,2.21-1.98,2.8-3.63s.89-3.79.89-6.4v-32.24h14.88Z"/>
    <path class="st0" d="M558.72,200.94l-2.71-10.32h-17.89l-2.79,10.32h-16.34l17.96-55.28h19.85l18.19,55.28h-16.27ZM552.92,178.42l-2.37-9.04c-.25-.98-.62-2.38-1.09-4.2-.48-1.82-.95-3.7-1.41-5.65-.46-1.95-.82-3.55-1.07-4.8-.23,1.26-.55,2.81-.96,4.65-.41,1.84-.84,3.67-1.28,5.48s-.82,3.31-1.15,4.52l-2.37,9.04h11.71Z"/>
    <path class="st0" d="M633.36,200.94h-19.51l-20.11-38.79h-.34c.12,1.18.24,2.6.34,4.25.1,1.66.19,3.35.26,5.07s.11,3.27.11,4.65v24.82h-13.18v-55.06h19.43l20.03,38.26h.23c-.08-1.21-.15-2.6-.23-4.2-.08-1.59-.14-3.21-.21-4.84-.06-1.63-.09-3.08-.09-4.33v-24.89h13.26v55.06Z"/>
  </g>
</svg>