<?xml version="1.0" encoding="UTF-8"?>
<svg id="Capa_1" xmlns="http://www.w3.org/2000/svg" version="1.1" viewBox="0 0 195.91 247.56">
  <!-- Generator: Adobe Illustrator 29.0.0, SVG Export Plug-In . SVG Version: 2.1.0 Build 186)  -->
  <defs>
    <style>
      .st0 {
        fill: #fff;
      }
    </style>
  </defs>
  <path class="st0" d="M0,0v247.56h195.91V0H0ZM47.31,49.11c13.18,10.74,28.53,17.79,43.15,26.24,1.01.6,1.61,1.24,1.48,1.53-.12.27-.9.26-1.84.02-7.64-1.44-15.35-2.23-22.79-4.57-5.59-1.76-23.43-9.59-26.96-13.6-4.62-5.25.69-11.87,6.95-9.62ZM31.14,166.78c-4.72.13-6.35-2.82-5.99-7.23.28-3.42,2.64-3.7,5.34-4.72,2.19-.82,11.68-4.44,22.61-6.25,7.16-1.19,25.81-.55,25.81-.55.26,1.63.12,1.25-.94,1.75-6.36,3-15.87,5.06-22.74,7.63-5,1.86-20.16,9.26-24.08,9.37ZM98.93,204.58c-1.52,2.37-6.51,8.21-8.6,10.66-7.41,8.67-16.34,16.23-23.88,24.77-6.87,3.86-12.89-4.29-7.76-9.86,13.34-10.23,26.24-21.05,41.4-28.62.24,1.25-.54,2.09-1.15,3.04ZM167.41,77.01c-52.54,12.7-81.44,92.97-15.93,106.73,5.25,1.1,10.35,1.16,15.61,1.82.87.11,3.6.2,3.59,1.37-5.4-.2-11.21.67-16.56.35-33.56-2.02-53.8-25.39-47.5-59.12,5.74-30.72,32.23-57.13,62.86-63.52,4.66-.97,13.29-3.46,15.3,2.5,3.29,9.8-11.25,8.39-17.36,9.86Z"/>
</svg>